# MagicaVoxel @ Ephtracy

# group
o 

# material
mtllib playButton.mtl
usemtl palette

# normals
vn -1 0 0
vn 1 0 0
vn 0 0 1
vn 0 0 -1
vn 0 -1 0
vn 0 1 0

# texcoords
vt 0.400391 0.5
vt 0.955078 0.5
vt 0.966797 0.5

# verts
v 1.1 3.1 -1.9
v 1.1 3.1 -2.8
v 1.1 3.2 -1.9
v 1.1 3.2 -2.8
v 1.8 3.1 -1.9
v 1.8 3.1 -2.8
v 1.8 3.2 -1.9
v 1.8 3.2 -2.8
v 1.1 3.1 -1.9
v 1.1 3.2 -1.9
v 1.8 3.1 -1.9
v 1.8 3.2 -1.9
v 1.1 3.1 -2.8
v 1.1 3.2 -2.8
v 1.8 3.1 -2.8
v 1.8 3.2 -2.8
v 1.1 3.1 -1.9
v 1.8 3.1 -1.9
v 1.2 3.1 -2
v 1.7 3.1 -2
v 1.3 3.1 -2.1
v 1.4 3.1 -2.1
v 1.4 3.1 -2.2
v 1.5 3.1 -2.2
v 1.5 3.1 -2.3
v 1.6 3.1 -2.3
v 1.5 3.1 -2.4
v 1.6 3.1 -2.4
v 1.4 3.1 -2.5
v 1.5 3.1 -2.5
v 1.3 3.1 -2.6
v 1.4 3.1 -2.6
v 1.2 3.1 -2.7
v 1.7 3.1 -2.7
v 1.1 3.1 -2.8
v 1.8 3.1 -2.8
v 1.1 3.2 -1.9
v 1.8 3.2 -1.9
v 1.2 3.2 -2
v 1.7 3.2 -2
v 1.3 3.2 -2.1
v 1.4 3.2 -2.1
v 1.4 3.2 -2.2
v 1.5 3.2 -2.2
v 1.5 3.2 -2.3
v 1.6 3.2 -2.3
v 1.5 3.2 -2.4
v 1.6 3.2 -2.4
v 1.4 3.2 -2.5
v 1.5 3.2 -2.5
v 1.3 3.2 -2.6
v 1.4 3.2 -2.6
v 1.2 3.2 -2.7
v 1.7 3.2 -2.7
v 1.1 3.2 -2.8
v 1.8 3.2 -2.8

# faces
f 3/3/1 2/3/1 1/3/1
f 4/3/1 2/3/1 3/3/1
f 5/3/2 6/3/2 7/3/2
f 7/3/2 6/3/2 8/3/2
f 11/3/3 10/3/3 9/3/3
f 12/3/3 10/3/3 11/3/3
f 13/3/4 14/3/4 15/3/4
f 15/3/4 14/3/4 16/3/4
f 19/3/5 18/3/5 17/3/5
f 20/3/5 18/3/5 19/3/5
f 21/2/5 20/2/5 19/2/5
f 22/2/5 20/2/5 21/2/5
f 23/1/5 22/1/5 21/1/5
f 23/2/5 20/2/5 22/2/5
f 24/2/5 20/2/5 23/2/5
f 25/1/5 24/1/5 23/1/5
f 25/2/5 20/2/5 24/2/5
f 26/2/5 20/2/5 25/2/5
f 27/1/5 25/1/5 23/1/5
f 27/1/5 26/1/5 25/1/5
f 28/2/5 20/2/5 26/2/5
f 28/1/5 26/1/5 27/1/5
f 29/1/5 23/1/5 21/1/5
f 29/1/5 27/1/5 23/1/5
f 30/2/5 28/2/5 27/2/5
f 30/1/5 27/1/5 29/1/5
f 31/2/5 21/2/5 19/2/5
f 31/1/5 29/1/5 21/1/5
f 32/2/5 30/2/5 29/2/5
f 32/1/5 29/1/5 31/1/5
f 33/3/5 19/3/5 17/3/5
f 33/2/5 31/2/5 19/2/5
f 33/2/5 32/2/5 31/2/5
f 34/2/5 30/2/5 32/2/5
f 34/2/5 32/2/5 33/2/5
f 34/3/5 18/3/5 20/3/5
f 34/2/5 20/2/5 28/2/5
f 34/2/5 28/2/5 30/2/5
f 35/3/5 33/3/5 17/3/5
f 35/3/5 34/3/5 33/3/5
f 36/3/5 18/3/5 34/3/5
f 36/3/5 34/3/5 35/3/5
f 37/3/6 38/3/6 39/3/6
f 39/3/6 38/3/6 40/3/6
f 39/2/6 40/2/6 41/2/6
f 41/2/6 40/2/6 42/2/6
f 41/1/6 42/1/6 43/1/6
f 42/2/6 40/2/6 43/2/6
f 43/2/6 40/2/6 44/2/6
f 43/1/6 44/1/6 45/1/6
f 44/2/6 40/2/6 45/2/6
f 45/2/6 40/2/6 46/2/6
f 43/1/6 45/1/6 47/1/6
f 45/1/6 46/1/6 47/1/6
f 46/2/6 40/2/6 48/2/6
f 47/1/6 46/1/6 48/1/6
f 41/1/6 43/1/6 49/1/6
f 43/1/6 47/1/6 49/1/6
f 47/2/6 48/2/6 50/2/6
f 49/1/6 47/1/6 50/1/6
f 39/2/6 41/2/6 51/2/6
f 41/1/6 49/1/6 51/1/6
f 49/2/6 50/2/6 52/2/6
f 51/1/6 49/1/6 52/1/6
f 37/3/6 39/3/6 53/3/6
f 39/2/6 51/2/6 53/2/6
f 51/2/6 52/2/6 53/2/6
f 52/2/6 50/2/6 54/2/6
f 53/2/6 52/2/6 54/2/6
f 40/3/6 38/3/6 54/3/6
f 48/2/6 40/2/6 54/2/6
f 50/2/6 48/2/6 54/2/6
f 37/3/6 53/3/6 55/3/6
f 53/3/6 54/3/6 55/3/6
f 54/3/6 38/3/6 56/3/6
f 55/3/6 54/3/6 56/3/6
